<svg width="983" height="258" viewBox="0 0 983 258" fill="none" xmlns="http://www.w3.org/2000/svg">
<path d="M516.708 189.58C500.695 171.463 488.112 149.279 485.296 127.6C481.887 101.343 508.156 63.2833 550.521 76.8319C575.716 84.8865 594.693 104.514 599.861 124.145C595.492 107.494 634.61 81.79 653.17 76.7196C678.297 69.8574 702.196 77.5055 710.962 96.5947C734.861 148.55 683.351 205.399 634.639 239.672C601.289 263.15 578.18 241.809 553.713 223.095C540.142 212.714 527.41 201.69 516.708 189.58Z" fill="#FFB2D7"/>
<path d="M243.277 20V63.84C243.277 64.3733 243.17 64.9067 242.957 65.44C242.21 67.04 240.93 67.84 239.117 67.84C238.477 67.84 237.89 67.7333 237.357 67.52C235.757 66.7733 234.957 65.5467 234.957 63.84V20C234.957 19.2533 235.064 18.6133 235.277 18.08C236.13 16.48 237.41 15.68 239.117 15.68C239.757 15.68 240.29 15.7867 240.717 16C242.424 16.7467 243.277 18.08 243.277 20ZM254.969 29.92C256.142 29.92 257.209 30.3467 258.169 31.2C259.022 32.0533 259.449 33.12 259.449 34.4V52.64C259.449 54.1333 259.715 55.36 260.249 56.32C260.995 57.7067 261.902 58.6133 262.969 59.04C263.929 59.36 264.995 59.52 266.169 59.52C268.835 59.52 270.649 58.72 271.609 57.12L272.089 56.32C272.622 55.1467 272.889 53.92 272.889 52.64V34.4C272.889 32.6933 273.635 31.4133 275.129 30.56C276.622 29.7067 278.009 29.7067 279.289 30.56C280.782 31.4133 281.529 32.6933 281.529 34.4V52.64C280.889 60 277.582 64.8 271.609 67.04C269.902 67.68 268.089 68 266.169 68C261.049 68 257.049 66.08 254.169 62.24C253.635 61.6 253.155 60.9067 252.729 60.16C251.449 57.7067 250.809 55.2 250.809 52.64V34.4C250.809 32.48 251.609 31.1467 253.209 30.4C253.742 30.08 254.329 29.92 254.969 29.92ZM304.376 29.92C307.682 29.92 310.669 30.7733 313.336 32.48C314.722 33.44 315.416 34.72 315.416 36.32C315.202 38.0267 314.349 39.2533 312.856 40C311.362 40.64 309.976 40.48 308.696 39.52C307.522 38.88 306.082 38.56 304.376 38.56C302.989 38.56 301.656 38.9333 300.376 39.68C298.029 41.28 296.856 44.32 296.856 48.8V48.96C296.856 53.76 297.976 56.9067 300.216 58.4C301.389 59.1467 302.776 59.52 304.376 59.52C306.082 59.52 307.522 59.1467 308.696 58.4C309.976 57.3333 311.362 57.1733 312.856 57.92C314.349 58.6667 315.202 59.8933 315.416 61.6C315.416 63.3067 314.722 64.5333 313.336 65.28C310.669 67.0933 307.682 68 304.376 68C301.069 68 298.189 67.1467 295.736 65.44C290.829 62.3467 288.376 56.8 288.376 48.8C288.376 41.9733 290.456 36.8533 294.616 33.44C297.282 31.0933 300.536 29.92 304.376 29.92ZM337.809 29.92C343.676 29.92 348.103 32.5333 351.089 37.76C351.943 39.36 351.943 40.9067 351.089 42.4C350.129 43.7867 348.796 44.4267 347.089 44.32C345.383 44.1067 344.209 43.2 343.569 41.6C342.823 40.1067 341.863 39.2 340.689 38.88C339.836 38.6667 338.876 38.56 337.809 38.56C335.036 38.56 333.169 39.3067 332.209 40.8C332.103 41.0133 331.943 41.28 331.729 41.6C331.196 42.7733 330.876 44 330.769 45.28V63.68C330.769 65.28 330.129 66.5067 328.849 67.36C327.356 68.2133 325.916 68.2133 324.529 67.36C323.143 66.5067 322.449 65.28 322.449 63.68V45.28C322.983 37.92 326.236 33.1733 332.209 31.04C333.916 30.2933 335.783 29.92 337.809 29.92ZM362.625 29.92C363.798 29.92 364.865 30.3467 365.825 31.2C366.678 32.0533 367.105 33.12 367.105 34.4V52.64C367.105 54.1333 367.372 55.36 367.905 56.32C368.652 57.7067 369.558 58.6133 370.625 59.04C371.585 59.36 372.652 59.52 373.825 59.52C376.492 59.52 378.305 58.72 379.265 57.12L379.745 56.32C380.278 55.1467 380.545 53.92 380.545 52.64V34.4C380.545 32.6933 381.292 31.4133 382.785 30.56C384.278 29.7067 385.665 29.7067 386.945 30.56C388.438 31.4133 389.185 32.6933 389.185 34.4V52.64C388.545 60 385.238 64.8 379.265 67.04C377.558 67.68 375.745 68 373.825 68C368.705 68 364.705 66.08 361.825 62.24C361.292 61.6 360.812 60.9067 360.385 60.16C359.105 57.7067 358.465 55.2 358.465 52.64V34.4C358.465 32.48 359.265 31.1467 360.865 30.4C361.398 30.08 361.985 29.92 362.625 29.92ZM411.872 29.92C417.739 29.92 422.165 32.5333 425.152 37.76C426.005 39.36 426.005 40.9067 425.152 42.4C424.192 43.7867 422.859 44.4267 421.152 44.32C419.445 44.1067 418.272 43.2 417.632 41.6C416.885 40.1067 415.925 39.2 414.752 38.88C413.899 38.6667 412.939 38.56 411.872 38.56C409.099 38.56 407.232 39.3067 406.272 40.8C406.165 41.0133 406.005 41.28 405.792 41.6C405.259 42.7733 404.939 44 404.832 45.28V63.68C404.832 65.28 404.192 66.5067 402.912 67.36C401.419 68.2133 399.979 68.2133 398.592 67.36C397.205 66.5067 396.512 65.28 396.512 63.68V45.28C397.045 37.92 400.299 33.1733 406.272 31.04C407.979 30.2933 409.845 29.92 411.872 29.92ZM436.688 14.56C437.861 14.3467 438.928 14.6667 439.888 15.52C440.848 16.48 441.328 17.6 441.328 18.88V19.52C441.328 21.12 440.634 22.3467 439.247 23.2C437.754 24.0533 436.314 24.0533 434.928 23.2C433.541 22.3467 432.848 21.12 432.848 19.52V18.88C432.848 18.3467 432.954 17.8667 433.168 17.44C433.701 15.7333 434.874 14.7733 436.688 14.56ZM437.008 29.92C438.288 29.92 439.301 30.3467 440.048 31.2C440.901 32.0533 441.328 33.0667 441.328 34.24V63.68C441.328 65.28 440.634 66.5067 439.247 67.36C437.754 68.2133 436.314 68.2133 434.928 67.36C433.541 66.5067 432.848 65.28 432.848 63.68V34.24C432.848 33.6 433.008 33.0133 433.328 32.48C433.968 30.7733 435.194 29.92 437.008 29.92ZM491.407 29.92C494.714 29.92 497.7 30.7733 500.367 32.48C501.754 33.44 502.447 34.72 502.447 36.32C502.234 38.0267 501.38 39.2533 499.887 40C498.394 40.64 497.007 40.48 495.727 39.52C494.554 38.88 493.114 38.56 491.407 38.56C490.02 38.56 488.687 38.9333 487.407 39.68C485.06 41.28 483.887 44.32 483.887 48.8V48.96C483.887 53.76 485.007 56.9067 487.247 58.4C488.42 59.1467 489.807 59.52 491.407 59.52C493.114 59.52 494.554 59.1467 495.727 58.4C497.007 57.3333 498.394 57.1733 499.887 57.92C501.38 58.6667 502.234 59.8933 502.447 61.6C502.447 63.3067 501.754 64.5333 500.367 65.28C497.7 67.0933 494.714 68 491.407 68C488.1 68 485.22 67.1467 482.767 65.44C477.86 62.3467 475.407 56.8 475.407 48.8C475.407 41.9733 477.487 36.8533 481.647 33.44C484.314 31.0933 487.567 29.92 491.407 29.92ZM538.121 63.2C538.121 65.3333 537.747 66.88 537.001 67.84C536.147 68.8 535.081 69.2267 533.801 69.12C531.881 69.0133 530.601 68.1067 529.961 66.4C526.654 68.1067 523.027 68.32 519.081 67.04C518.121 66.6133 517.214 66.1333 516.361 65.6C512.841 63.36 510.601 60 509.641 55.52C508.147 48.48 509.054 42.5067 512.361 37.6C515.347 33.5467 519.241 31.52 524.041 31.52C526.067 31.52 528.094 32.0533 530.121 33.12C531.081 33.6533 531.987 34.2933 532.841 35.04C536.041 37.92 537.801 41.8667 538.121 46.88V63.2ZM523.721 40.16C523.187 40.16 522.601 40.2667 521.961 40.48C519.827 41.12 518.547 42.5067 518.121 44.64C517.267 47.84 517.267 51.0933 518.121 54.4C518.121 54.8267 518.227 55.2533 518.441 55.68C519.294 57.7067 520.787 58.88 522.921 59.2C524.201 59.3067 525.214 59.2533 525.961 59.04C528.094 58.1867 529.321 56 529.641 52.48C529.747 47.5733 529.427 44.4267 528.681 43.04C527.507 41.12 525.854 40.16 523.721 40.16ZM560.856 29.92C566.723 29.92 571.15 32.5333 574.136 37.76C574.99 39.36 574.99 40.9067 574.136 42.4C573.176 43.7867 571.843 44.4267 570.136 44.32C568.43 44.1067 567.256 43.2 566.616 41.6C565.87 40.1067 564.91 39.2 563.736 38.88C562.883 38.6667 561.923 38.56 560.856 38.56C558.083 38.56 556.216 39.3067 555.256 40.8C555.15 41.0133 554.99 41.28 554.776 41.6C554.243 42.7733 553.923 44 553.816 45.28V63.68C553.816 65.28 553.176 66.5067 551.896 67.36C550.403 68.2133 548.963 68.2133 547.576 67.36C546.19 66.5067 545.496 65.28 545.496 63.68V45.28C546.03 37.92 549.283 33.1733 555.256 31.04C556.963 30.2933 558.83 29.92 560.856 29.92ZM597.832 59.2C601.565 59.2 603.912 58.88 604.872 58.24C606.152 57.1733 607.592 56.9067 609.192 57.44C610.579 58.08 611.379 59.2533 611.592 60.96C611.912 62.56 611.379 63.84 609.992 64.8C608.499 66.08 606.632 66.9867 604.392 67.52C602.792 67.84 600.125 67.9467 596.392 67.84C593.725 67.84 591.112 66.9333 588.552 65.12C583.859 61.7067 581.352 56.5333 581.032 49.6C580.925 49.0667 580.925 48.48 581.032 47.84C581.352 40.5867 583.859 35.4133 588.552 32.32C591.112 30.5067 594.045 29.6 597.352 29.6C599.805 29.6 601.992 30.1333 603.912 31.2C609.032 34.4 611.592 39.7333 611.592 47.2V48.8C611.592 49.3333 611.485 49.8667 611.272 50.4C610.632 52.1067 609.352 52.96 607.432 52.96H589.992C590.739 56.5867 592.872 58.6667 596.392 59.2H597.832ZM597.192 38.24H596.872H596.392C595.432 38.24 594.365 38.56 593.192 39.2C591.485 40.3733 590.419 42.1333 589.992 44.48H603.112V44.16C602.685 41.4933 601.619 39.7333 599.912 38.88C599.165 38.4533 598.259 38.24 597.192 38.24ZM650.281 14.56C651.455 14.3467 652.521 14.6667 653.481 15.52C654.441 16.48 654.921 17.6 654.921 18.88V19.52C654.921 21.12 654.228 22.3467 652.841 23.2C651.348 24.0533 649.908 24.0533 648.521 23.2C647.135 22.3467 646.441 21.12 646.441 19.52V18.88C646.441 18.3467 646.548 17.8667 646.761 17.44C647.295 15.7333 648.468 14.7733 650.281 14.56ZM650.601 29.92C651.881 29.92 652.895 30.3467 653.641 31.2C654.495 32.0533 654.921 33.0667 654.921 34.24V63.68C654.921 65.28 654.228 66.5067 652.841 67.36C651.348 68.2133 649.908 68.2133 648.521 67.36C647.135 66.5067 646.441 65.28 646.441 63.68V34.24C646.441 33.6 646.601 33.0133 646.921 32.48C647.561 30.7733 648.788 29.92 650.601 29.92ZM674.849 29.76C678.476 29.76 681.569 30.88 684.129 33.12C686.689 30.88 689.729 29.76 693.249 29.76C697.729 29.76 701.249 31.36 703.809 34.56C705.836 37.0133 706.796 39.7867 706.689 42.88V63.52C706.689 65.12 705.996 66.3467 704.609 67.2C703.223 68.0533 701.783 68.0533 700.289 67.2C698.903 66.3467 698.209 65.12 698.209 63.52V42.88C697.889 40.5867 697.036 39.1467 695.649 38.56C695.116 38.3467 694.316 38.24 693.249 38.24C691.223 38.24 689.889 38.7733 689.249 39.84C688.716 40.8 688.396 41.8133 688.289 42.88V51.76C688.289 53.36 687.596 54.5867 686.209 55.44C684.823 56.2933 683.383 56.2933 681.889 55.44C680.503 54.6933 679.809 53.4667 679.809 51.76V42.88C679.489 40.5867 678.636 39.1467 677.249 38.56C676.716 38.3467 675.916 38.24 674.849 38.24C672.929 38.24 671.649 38.7733 671.009 39.84C670.369 40.96 669.996 41.9733 669.889 42.88V63.52C669.996 65.12 669.303 66.3467 667.809 67.2C666.423 68.0533 664.983 68.0533 663.489 67.2C662.103 66.3467 661.409 65.12 661.409 63.52V42.88C661.836 36.2667 664.823 32.1067 670.369 30.4C671.756 29.9733 673.249 29.76 674.849 29.76ZM716.844 14.56C718.017 14.3467 719.084 14.6667 720.044 15.52C721.004 16.48 721.484 17.6 721.484 18.88V19.52C721.484 21.12 720.79 22.3467 719.404 23.2C717.91 24.0533 716.47 24.0533 715.084 23.2C713.697 22.3467 713.004 21.12 713.004 19.52V18.88C713.004 18.3467 713.11 17.8667 713.324 17.44C713.857 15.7333 715.03 14.7733 716.844 14.56ZM717.164 29.92C718.444 29.92 719.457 30.3467 720.204 31.2C721.057 32.0533 721.484 33.0667 721.484 34.24V63.68C721.484 65.28 720.79 66.5067 719.404 67.36C717.91 68.2133 716.47 68.2133 715.084 67.36C713.697 66.5067 713.004 65.28 713.004 63.68V34.24C713.004 33.6 713.164 33.0133 713.484 32.48C714.124 30.7733 715.35 29.92 717.164 29.92ZM303.227 137.08V137.24C305.894 137.24 308.347 138.04 310.587 139.64C315.494 142.947 317.947 148.387 317.947 155.96C317.947 157.347 317.894 158.627 317.787 159.8C316.934 165.56 314.534 169.773 310.587 172.44C308.454 173.827 305.84 174.68 302.747 175C300.507 175 298.214 174.467 295.867 173.4V185.56C295.867 187.16 295.227 188.387 293.947 189.24C292.454 190.093 290.96 190.093 289.467 189.24C288.187 188.387 287.547 187.16 287.547 185.56V154.52C287.547 152.6 287.76 150.787 288.187 149.08C289.254 144.067 291.6 140.6 295.227 138.68C297.574 137.4 300.08 136.867 302.747 137.08H303.227ZM295.867 159.64C295.867 160.92 296.027 161.987 296.347 162.84C297.094 164.76 299.227 165.987 302.747 166.52C303.814 166.52 304.88 166.147 305.947 165.4C308.294 163.693 309.467 160.547 309.467 155.96C309.467 150.733 307.814 147.373 304.507 145.88L302.747 145.56C302.64 145.56 302.48 145.56 302.267 145.56C301.2 145.453 300.187 145.667 299.227 146.2C296.987 147.267 295.867 150.04 295.867 154.52V159.64ZM333.609 127V170.84C333.609 171.373 333.502 171.907 333.289 172.44C332.542 174.04 331.262 174.84 329.449 174.84C328.809 174.84 328.222 174.733 327.689 174.52C326.089 173.773 325.289 172.547 325.289 170.84V127C325.289 126.253 325.396 125.613 325.609 125.08C326.462 123.48 327.742 122.68 329.449 122.68C330.089 122.68 330.622 122.787 331.049 123C332.756 123.747 333.609 125.08 333.609 127ZM369.781 170.2C369.781 172.333 369.407 173.88 368.661 174.84C367.807 175.8 366.741 176.227 365.461 176.12C363.541 176.013 362.261 175.107 361.621 173.4C358.314 175.107 354.687 175.32 350.741 174.04C349.781 173.613 348.874 173.133 348.021 172.6C344.501 170.36 342.261 167 341.301 162.52C339.807 155.48 340.714 149.507 344.021 144.6C347.007 140.547 350.901 138.52 355.701 138.52C357.727 138.52 359.754 139.053 361.781 140.12C362.741 140.653 363.647 141.293 364.501 142.04C367.701 144.92 369.461 148.867 369.781 153.88V170.2ZM355.381 147.16C354.847 147.16 354.261 147.267 353.621 147.48C351.487 148.12 350.207 149.507 349.781 151.64C348.927 154.84 348.927 158.093 349.781 161.4C349.781 161.827 349.887 162.253 350.101 162.68C350.954 164.707 352.447 165.88 354.581 166.2C355.861 166.307 356.874 166.253 357.621 166.04C359.754 165.187 360.981 163 361.301 159.48C361.407 154.573 361.087 151.427 360.341 150.04C359.167 148.12 357.514 147.16 355.381 147.16ZM392.676 136.92C395.983 136.92 398.97 137.773 401.636 139.48C403.023 140.44 403.716 141.72 403.716 143.32C403.503 145.027 402.65 146.253 401.156 147C399.663 147.64 398.276 147.48 396.996 146.52C395.823 145.88 394.383 145.56 392.676 145.56C391.29 145.56 389.956 145.933 388.676 146.68C386.33 148.28 385.156 151.32 385.156 155.8V155.96C385.156 160.76 386.276 163.907 388.516 165.4C389.69 166.147 391.076 166.52 392.676 166.52C394.383 166.52 395.823 166.147 396.996 165.4C398.276 164.333 399.663 164.173 401.156 164.92C402.65 165.667 403.503 166.893 403.716 168.6C403.716 170.307 403.023 171.533 401.636 172.28C398.97 174.093 395.983 175 392.676 175C389.37 175 386.49 174.147 384.036 172.44C379.13 169.347 376.676 163.8 376.676 155.8C376.676 148.973 378.756 143.853 382.916 140.44C385.583 138.093 388.836 136.92 392.676 136.92ZM446.421 127V170.84C446.421 171.373 446.315 171.907 446.101 172.44C445.355 174.04 444.075 174.84 442.261 174.84C441.621 174.84 441.035 174.733 440.501 174.52C438.901 173.773 438.101 172.547 438.101 170.84V127C438.101 126.253 438.208 125.613 438.421 125.08C439.275 123.48 440.555 122.68 442.261 122.68C442.901 122.68 443.435 122.787 443.861 123C445.568 123.747 446.421 125.08 446.421 127ZM482.593 170.2C482.593 172.333 482.22 173.88 481.473 174.84C480.62 175.8 479.553 176.227 478.273 176.12C476.353 176.013 475.073 175.107 474.433 173.4C471.127 175.107 467.5 175.32 463.553 174.04C462.593 173.613 461.687 173.133 460.833 172.6C457.313 170.36 455.073 167 454.113 162.52C452.62 155.48 453.527 149.507 456.833 144.6C459.82 140.547 463.713 138.52 468.513 138.52C470.54 138.52 472.567 139.053 474.593 140.12C475.553 140.653 476.46 141.293 477.313 142.04C480.513 144.92 482.273 148.867 482.593 153.88V170.2ZM468.193 147.16C467.66 147.16 467.073 147.267 466.433 147.48C464.3 148.12 463.02 149.507 462.593 151.64C461.74 154.84 461.74 158.093 462.593 161.4C462.593 161.827 462.7 162.253 462.913 162.68C463.767 164.707 465.26 165.88 467.393 166.2C468.673 166.307 469.687 166.253 470.433 166.04C472.567 165.187 473.793 163 474.113 159.48C474.22 154.573 473.9 151.427 473.153 150.04C471.98 148.12 470.327 147.16 468.193 147.16ZM537.16 127.4C544.493 127.4 550.027 130.667 553.76 137.2C554.827 139.2 554.827 141.133 553.76 143C552.56 144.733 550.893 145.533 548.76 145.4C546.627 145.133 545.16 144 544.36 142C543.427 140.133 542.227 139 540.76 138.6C539.693 138.333 538.493 138.2 537.16 138.2C533.693 138.2 531.36 139.133 530.16 141C530.027 141.267 529.827 141.6 529.56 142C528.893 143.467 528.493 145 528.36 146.6V169.6C528.36 171.6 527.56 173.133 525.96 174.2C524.093 175.267 522.293 175.267 520.56 174.2C518.827 173.133 517.96 171.6 517.96 169.6V146.6C518.627 137.4 522.693 131.467 530.16 128.8C532.293 127.867 534.627 127.4 537.16 127.4ZM583.38 164C588.046 164 590.98 163.6 592.18 162.8C593.78 161.467 595.58 161.133 597.58 161.8C599.313 162.6 600.313 164.067 600.58 166.2C600.98 168.2 600.313 169.8 598.58 171C596.713 172.6 594.38 173.733 591.58 174.4C589.58 174.8 586.246 174.933 581.58 174.8C578.246 174.8 574.98 173.667 571.78 171.4C565.913 167.133 562.78 160.667 562.38 152C562.246 151.333 562.246 150.6 562.38 149.8C562.78 140.733 565.913 134.267 571.78 130.4C574.98 128.133 578.646 127 582.78 127C585.846 127 588.58 127.667 590.98 129C597.38 133 600.58 139.667 600.58 149V151C600.58 151.667 600.446 152.333 600.18 153C599.38 155.133 597.78 156.2 595.38 156.2H573.58C574.513 160.733 577.18 163.333 581.58 164H583.38ZM582.58 137.8H582.18H581.58C580.38 137.8 579.046 138.2 577.58 139C575.446 140.467 574.113 142.667 573.58 145.6H589.98V145.2C589.446 141.867 588.113 139.667 585.98 138.6C585.046 138.067 583.913 137.8 582.58 137.8ZM629.152 175C626.086 175.267 623.019 174.6 619.952 173C613.419 169.267 610.152 162.667 610.152 153.2V114.6C610.152 113.667 610.352 112.867 610.752 112.2C611.552 110.067 613.086 109 615.352 109C616.819 109 618.086 109.6 619.152 110.8C620.219 111.733 620.752 113 620.752 114.6V129.6C623.152 128.667 625.952 128 629.152 127.6C633.419 127.6 637.286 129.133 640.752 132.2C645.819 136.467 648.352 142.8 648.352 151.2C648.352 152.933 648.219 154.533 647.952 156C646.886 163.333 643.952 168.6 639.152 171.8C636.219 173.8 633.152 174.867 629.952 175H629.152ZM620.752 153.2C620.752 154.533 620.819 155.8 620.952 157C621.619 162.067 624.152 164.6 628.552 164.6H629.152C630.486 164.467 631.819 163.933 633.152 163C636.219 160.867 637.752 156.933 637.752 151.2C637.752 145.467 636.219 141.6 633.152 139.6C632.086 138.933 630.752 138.467 629.152 138.2C627.686 138.2 626.219 138.6 624.752 139.4C624.219 139.667 623.819 139.867 623.552 140C621.686 141.2 620.752 143.4 620.752 146.6V153.2ZM677.52 164C682.187 164 685.12 163.6 686.32 162.8C687.92 161.467 689.72 161.133 691.72 161.8C693.454 162.6 694.454 164.067 694.72 166.2C695.12 168.2 694.454 169.8 692.72 171C690.854 172.6 688.52 173.733 685.72 174.4C683.72 174.8 680.387 174.933 675.72 174.8C672.387 174.8 669.12 173.667 665.92 171.4C660.054 167.133 656.92 160.667 656.52 152C656.387 151.333 656.387 150.6 656.52 149.8C656.92 140.733 660.054 134.267 665.92 130.4C669.12 128.133 672.787 127 676.92 127C679.987 127 682.72 127.667 685.12 129C691.52 133 694.72 139.667 694.72 149V151C694.72 151.667 694.587 152.333 694.32 153C693.52 155.133 691.92 156.2 689.52 156.2H667.72C668.654 160.733 671.32 163.333 675.72 164H677.52ZM676.72 137.8H676.32H675.72C674.52 137.8 673.187 138.2 671.72 139C669.587 140.467 668.254 142.667 667.72 145.6H684.12V145.2C683.587 141.867 682.254 139.667 680.12 138.6C679.187 138.067 678.054 137.8 676.72 137.8Z" fill="white"/>
</svg>
