<svg width="983" height="258" viewBox="0 0 983 258" fill="none" xmlns="http://www.w3.org/2000/svg">
<path d="M662.708 183.58C646.695 165.463 634.112 143.279 631.296 121.6C627.887 95.3432 654.156 57.2833 696.521 70.8319C721.716 78.8865 740.693 98.5137 745.861 118.145C741.492 101.494 780.61 75.79 799.17 70.7196C824.297 63.8574 848.196 71.5054 856.962 90.5947C880.861 142.55 829.351 199.399 780.639 233.672C747.289 257.15 724.18 235.809 699.713 217.095C686.142 206.714 673.41 195.69 662.708 183.58Z" fill="#FFB2D7"/>
<path d="M281.387 14.88C282.667 14.88 283.734 15.3067 284.587 16.16C285.44 17.0133 285.814 18.0267 285.707 19.2V30.24H290.987C292.694 30.24 293.974 30.9867 294.827 32.48C295.68 33.76 295.68 35.1467 294.827 36.64C293.974 38.1333 292.694 38.8267 290.987 38.72H285.707V55.36C285.707 56.96 285.974 58.0267 286.507 58.56C286.827 58.9867 287.36 59.2533 288.107 59.36C288.96 59.68 290.027 59.6267 291.307 59.2C293.014 58.6667 294.507 59.04 295.787 60.32C296.854 61.3867 297.174 62.7733 296.747 64.48C296.32 66.08 295.307 67.0933 293.707 67.52L290.667 68C285.974 68.32 282.454 67.04 280.107 64.16C278.187 61.92 277.227 58.9867 277.227 55.36V38.72H274.667C272.96 38.8267 271.734 38.1333 270.987 36.64C270.134 35.1467 270.134 33.76 270.987 32.48C271.734 30.9867 272.96 30.24 274.667 30.24H277.227V19.2C277.227 17.4933 277.974 16.16 279.467 15.2C280.107 14.9867 280.747 14.88 281.387 14.88ZM316.563 30.08C319.976 30.08 322.963 30.9333 325.523 32.64C330.323 36.2667 332.723 41.7067 332.723 48.96C332.723 56.7467 330.323 62.24 325.523 65.44C322.856 67.1467 319.87 68 316.563 68C312.83 68 309.523 66.9333 306.643 64.8C302.59 61.3867 300.616 56.1067 300.723 48.96C300.723 41.3867 303.123 36 307.923 32.8C310.483 30.9867 313.363 30.08 316.563 30.08ZM309.043 49.6C309.043 56.32 311.55 59.68 316.563 59.68C321.79 59.68 324.403 56.1067 324.403 48.96C324.403 42.0267 321.79 38.56 316.563 38.56C315.176 38.56 313.843 38.9867 312.563 39.84C310.216 41.3333 309.043 44.3733 309.043 48.96V49.6ZM355.317 30.08V30.24C357.984 30.24 360.437 31.04 362.677 32.64C367.584 35.9467 370.037 41.3867 370.037 48.96C370.037 50.3467 369.984 51.6267 369.877 52.8C369.024 58.56 366.624 62.7733 362.677 65.44C360.544 66.8267 357.93 67.68 354.837 68C352.597 68 350.304 67.4667 347.957 66.4V78.56C347.957 80.16 347.317 81.3867 346.037 82.24C344.544 83.0933 343.05 83.0933 341.557 82.24C340.277 81.3867 339.637 80.16 339.637 78.56V47.52C339.637 45.6 339.85 43.7867 340.277 42.08C341.344 37.0667 343.69 33.6 347.317 31.68C349.664 30.4 352.17 29.8667 354.837 30.08H355.317ZM347.957 52.64C347.957 53.92 348.117 54.9867 348.437 55.84C349.184 57.76 351.317 58.9867 354.837 59.52C355.904 59.52 356.97 59.1467 358.037 58.4C360.384 56.6933 361.557 53.5467 361.557 48.96C361.557 43.7333 359.904 40.3733 356.597 38.88L354.837 38.56C354.73 38.56 354.57 38.56 354.357 38.56C353.29 38.4533 352.277 38.6667 351.317 39.2C349.077 40.2667 347.957 43.04 347.957 47.52V52.64ZM412.57 57.44C413.957 58.4 415.717 58.88 417.85 58.88L425.69 59.04C427.717 59.04 429.317 58.4 430.49 57.12C432.09 55.6267 432.89 53.28 432.89 50.08C432.89 48.3733 432.677 47.1467 432.25 46.4C432.143 46.08 431.877 45.8133 431.45 45.6C430.49 45.28 427.237 45.12 421.69 45.12C419.77 45.12 418.49 44.1067 417.85 42.08C417.423 40.0533 417.797 38.4533 418.97 37.28C419.61 36.4267 420.517 36 421.69 36C428.09 36 431.61 35.4133 432.25 34.24C432.677 33.4933 432.89 32.2667 432.89 30.56C432.89 27.1467 432.09 24.6933 430.49 23.2C429.317 22.0267 427.717 21.44 425.69 21.44H425.53L417.85 21.28C416.25 21.28 414.81 21.6 413.53 22.24C412.89 22.6667 412.57 22.8267 412.57 22.72C412.57 24.4267 411.823 25.76 410.33 26.72C408.837 27.5733 407.343 27.5733 405.85 26.72C404.25 25.76 403.45 24.4267 403.45 22.72C403.663 18.9867 405.69 16.16 409.53 14.24C411.983 12.96 414.757 12.32 417.85 12.32H425.69C430.063 12.32 433.743 13.8133 436.73 16.8C440.143 20.1067 441.85 24.6933 441.85 30.56C441.85 33.5467 441.317 36.1067 440.25 38.24C439.93 38.6667 439.397 39.36 438.65 40.32C439.503 41.28 440.037 41.92 440.25 42.24C441.317 44.2667 441.85 46.88 441.85 50.08C441.85 55.6267 440.143 60.1067 436.73 63.52C433.743 66.5067 430.063 68 425.69 68H425.53H417.85C414.863 68 412.09 67.36 409.53 66.08C405.477 64.16 403.45 61.3867 403.45 57.76C403.45 55.9467 404.25 54.6133 405.85 53.76C407.343 52.8 408.837 52.8 410.33 53.76C411.823 54.6133 412.57 55.9467 412.57 57.76V57.44ZM484.683 20V63.84C484.683 64.3733 484.576 64.9067 484.363 65.44C483.616 67.04 482.336 67.84 480.523 67.84C479.883 67.84 479.296 67.7333 478.763 67.52C477.163 66.7733 476.363 65.5467 476.363 63.84V20C476.363 19.2533 476.47 18.6133 476.683 18.08C477.536 16.48 478.816 15.68 480.523 15.68C481.163 15.68 481.696 15.7867 482.123 16C483.83 16.7467 484.683 18.08 484.683 20ZM496.375 29.92C497.548 29.92 498.615 30.3467 499.575 31.2C500.428 32.0533 500.855 33.12 500.855 34.4V52.64C500.855 54.1333 501.122 55.36 501.655 56.32C502.402 57.7067 503.308 58.6133 504.375 59.04C505.335 59.36 506.402 59.52 507.575 59.52C510.242 59.52 512.055 58.72 513.015 57.12L513.495 56.32C514.028 55.1467 514.295 53.92 514.295 52.64V34.4C514.295 32.6933 515.042 31.4133 516.535 30.56C518.028 29.7067 519.415 29.7067 520.695 30.56C522.188 31.4133 522.935 32.6933 522.935 34.4V52.64C522.295 60 518.988 64.8 513.015 67.04C511.308 67.68 509.495 68 507.575 68C502.455 68 498.455 66.08 495.575 62.24C495.042 61.6 494.562 60.9067 494.135 60.16C492.855 57.7067 492.215 55.2 492.215 52.64V34.4C492.215 32.48 493.015 31.1467 494.615 30.4C495.148 30.08 495.735 29.92 496.375 29.92ZM545.782 29.92C549.089 29.92 552.075 30.7733 554.742 32.48C556.129 33.44 556.822 34.72 556.822 36.32C556.609 38.0267 555.755 39.2533 554.262 40C552.769 40.64 551.382 40.48 550.102 39.52C548.929 38.88 547.489 38.56 545.782 38.56C544.395 38.56 543.062 38.9333 541.782 39.68C539.435 41.28 538.262 44.32 538.262 48.8V48.96C538.262 53.76 539.382 56.9067 541.622 58.4C542.795 59.1467 544.182 59.52 545.782 59.52C547.489 59.52 548.929 59.1467 550.102 58.4C551.382 57.3333 552.769 57.1733 554.262 57.92C555.755 58.6667 556.609 59.8933 556.822 61.6C556.822 63.3067 556.129 64.5333 554.742 65.28C552.075 67.0933 549.089 68 545.782 68C542.475 68 539.595 67.1467 537.142 65.44C532.235 62.3467 529.782 56.8 529.782 48.8C529.782 41.9733 531.862 36.8533 536.022 33.44C538.689 31.0933 541.942 29.92 545.782 29.92ZM579.216 29.92C585.082 29.92 589.509 32.5333 592.496 37.76C593.349 39.36 593.349 40.9067 592.496 42.4C591.536 43.7867 590.202 44.4267 588.496 44.32C586.789 44.1067 585.616 43.2 584.976 41.6C584.229 40.1067 583.269 39.2 582.096 38.88C581.242 38.6667 580.282 38.56 579.216 38.56C576.442 38.56 574.576 39.3067 573.616 40.8C573.509 41.0133 573.349 41.28 573.136 41.6C572.602 42.7733 572.282 44 572.176 45.28V63.68C572.176 65.28 571.536 66.5067 570.256 67.36C568.762 68.2133 567.322 68.2133 565.936 67.36C564.549 66.5067 563.856 65.28 563.856 63.68V45.28C564.389 37.92 567.642 33.1733 573.616 31.04C575.322 30.2933 577.189 29.92 579.216 29.92ZM604.031 29.92C605.205 29.92 606.271 30.3467 607.231 31.2C608.085 32.0533 608.511 33.12 608.511 34.4V52.64C608.511 54.1333 608.778 55.36 609.311 56.32C610.058 57.7067 610.965 58.6133 612.031 59.04C612.991 59.36 614.058 59.52 615.231 59.52C617.898 59.52 619.711 58.72 620.671 57.12L621.151 56.32C621.685 55.1467 621.951 53.92 621.951 52.64V34.4C621.951 32.6933 622.698 31.4133 624.191 30.56C625.685 29.7067 627.071 29.7067 628.351 30.56C629.845 31.4133 630.591 32.6933 630.591 34.4V52.64C629.951 60 626.645 64.8 620.671 67.04C618.965 67.68 617.151 68 615.231 68C610.111 68 606.111 66.08 603.231 62.24C602.698 61.6 602.218 60.9067 601.791 60.16C600.511 57.7067 599.871 55.2 599.871 52.64V34.4C599.871 32.48 600.671 31.1467 602.271 30.4C602.805 30.08 603.391 29.92 604.031 29.92ZM653.278 29.92C659.145 29.92 663.571 32.5333 666.558 37.76C667.411 39.36 667.411 40.9067 666.558 42.4C665.598 43.7867 664.265 44.4267 662.558 44.32C660.851 44.1067 659.678 43.2 659.038 41.6C658.291 40.1067 657.331 39.2 656.158 38.88C655.305 38.6667 654.345 38.56 653.278 38.56C650.505 38.56 648.638 39.3067 647.678 40.8C647.571 41.0133 647.411 41.28 647.198 41.6C646.665 42.7733 646.345 44 646.238 45.28V63.68C646.238 65.28 645.598 66.5067 644.318 67.36C642.825 68.2133 641.385 68.2133 639.998 67.36C638.611 66.5067 637.918 65.28 637.918 63.68V45.28C638.451 37.92 641.705 33.1733 647.678 31.04C649.385 30.2933 651.251 29.92 653.278 29.92ZM678.094 14.56C679.267 14.3467 680.334 14.6667 681.294 15.52C682.254 16.48 682.734 17.6 682.734 18.88V19.52C682.734 21.12 682.04 22.3467 680.654 23.2C679.16 24.0533 677.72 24.0533 676.334 23.2C674.947 22.3467 674.254 21.12 674.254 19.52V18.88C674.254 18.3467 674.36 17.8667 674.574 17.44C675.107 15.7333 676.28 14.7733 678.094 14.56ZM678.414 29.92C679.694 29.92 680.707 30.3467 681.454 31.2C682.307 32.0533 682.734 33.0667 682.734 34.24V63.68C682.734 65.28 682.04 66.5067 680.654 67.36C679.16 68.2133 677.72 68.2133 676.334 67.36C674.947 66.5067 674.254 65.28 674.254 63.68V34.24C674.254 33.6 674.414 33.0133 674.734 32.48C675.374 30.7733 676.6 29.92 678.414 29.92ZM162.989 136.92C166.296 136.92 169.282 137.773 171.949 139.48C173.336 140.44 174.029 141.72 174.029 143.32C173.816 145.027 172.962 146.253 171.469 147C169.976 147.64 168.589 147.48 167.309 146.52C166.136 145.88 164.696 145.56 162.989 145.56C161.602 145.56 160.269 145.933 158.989 146.68C156.642 148.28 155.469 151.32 155.469 155.8V155.96C155.469 160.76 156.589 163.907 158.829 165.4C160.002 166.147 161.389 166.52 162.989 166.52C164.696 166.52 166.136 166.147 167.309 165.4C168.589 164.333 169.976 164.173 171.469 164.92C172.962 165.667 173.816 166.893 174.029 168.6C174.029 170.307 173.336 171.533 171.949 172.28C169.282 174.093 166.296 175 162.989 175C159.682 175 156.802 174.147 154.349 172.44C149.442 169.347 146.989 163.8 146.989 155.8C146.989 148.973 149.069 143.853 153.229 140.44C155.896 138.093 159.149 136.92 162.989 136.92ZM209.703 170.2C209.703 172.333 209.329 173.88 208.583 174.84C207.729 175.8 206.663 176.227 205.383 176.12C203.463 176.013 202.183 175.107 201.543 173.4C198.236 175.107 194.609 175.32 190.663 174.04C189.703 173.613 188.796 173.133 187.943 172.6C184.423 170.36 182.183 167 181.223 162.52C179.729 155.48 180.636 149.507 183.943 144.6C186.929 140.547 190.823 138.52 195.623 138.52C197.649 138.52 199.676 139.053 201.703 140.12C202.663 140.653 203.569 141.293 204.423 142.04C207.623 144.92 209.383 148.867 209.703 153.88V170.2ZM195.303 147.16C194.769 147.16 194.183 147.267 193.543 147.48C191.409 148.12 190.129 149.507 189.703 151.64C188.849 154.84 188.849 158.093 189.703 161.4C189.703 161.827 189.809 162.253 190.023 162.68C190.876 164.707 192.369 165.88 194.503 166.2C195.783 166.307 196.796 166.253 197.543 166.04C199.676 165.187 200.903 163 201.223 159.48C201.329 154.573 201.009 151.427 200.263 150.04C199.089 148.12 197.436 147.16 195.303 147.16ZM232.438 136.92C238.305 136.92 242.732 139.533 245.718 144.76C246.572 146.36 246.572 147.907 245.718 149.4C244.758 150.787 243.425 151.427 241.718 151.32C240.012 151.107 238.838 150.2 238.198 148.6C237.452 147.107 236.492 146.2 235.318 145.88C234.465 145.667 233.505 145.56 232.438 145.56C229.665 145.56 227.798 146.307 226.838 147.8C226.732 148.013 226.572 148.28 226.358 148.6C225.825 149.773 225.505 151 225.398 152.28V170.68C225.398 172.28 224.758 173.507 223.478 174.36C221.985 175.213 220.545 175.213 219.158 174.36C217.772 173.507 217.078 172.28 217.078 170.68V152.28C217.612 144.92 220.865 140.173 226.838 138.04C228.545 137.293 230.412 136.92 232.438 136.92ZM269.414 166.2C273.147 166.2 275.494 165.88 276.454 165.24C277.734 164.173 279.174 163.907 280.774 164.44C282.161 165.08 282.961 166.253 283.174 167.96C283.494 169.56 282.961 170.84 281.574 171.8C280.081 173.08 278.214 173.987 275.974 174.52C274.374 174.84 271.707 174.947 267.974 174.84C265.307 174.84 262.694 173.933 260.134 172.12C255.441 168.707 252.934 163.533 252.614 156.6C252.507 156.067 252.507 155.48 252.614 154.84C252.934 147.587 255.441 142.413 260.134 139.32C262.694 137.507 265.627 136.6 268.934 136.6C271.387 136.6 273.574 137.133 275.494 138.2C280.614 141.4 283.174 146.733 283.174 154.2V155.8C283.174 156.333 283.067 156.867 282.854 157.4C282.214 159.107 280.934 159.96 279.014 159.96H261.574C262.321 163.587 264.454 165.667 267.974 166.2H269.414ZM268.774 145.24H268.454H267.974C267.014 145.24 265.947 145.56 264.774 146.2C263.067 147.373 262.001 149.133 261.574 151.48H274.694V151.16C274.267 148.493 273.201 146.733 271.494 145.88C270.747 145.453 269.841 145.24 268.774 145.24ZM321.863 121.56C323.037 121.347 324.103 121.667 325.063 122.52C326.023 123.48 326.503 124.6 326.503 125.88V126.52C326.503 128.12 325.81 129.347 324.423 130.2C322.93 131.053 321.49 131.053 320.103 130.2C318.717 129.347 318.023 128.12 318.023 126.52V125.88C318.023 125.347 318.13 124.867 318.343 124.44C318.877 122.733 320.05 121.773 321.863 121.56ZM322.183 136.92C323.463 136.92 324.477 137.347 325.223 138.2C326.077 139.053 326.503 140.067 326.503 141.24V170.68C326.503 172.28 325.81 173.507 324.423 174.36C322.93 175.213 321.49 175.213 320.103 174.36C318.717 173.507 318.023 172.28 318.023 170.68V141.24C318.023 140.6 318.183 140.013 318.503 139.48C319.143 137.773 320.37 136.92 322.183 136.92ZM346.431 136.76C350.058 136.76 353.151 137.88 355.711 140.12C358.271 137.88 361.311 136.76 364.831 136.76C369.311 136.76 372.831 138.36 375.391 141.56C377.418 144.013 378.378 146.787 378.271 149.88V170.52C378.271 172.12 377.578 173.347 376.191 174.2C374.805 175.053 373.365 175.053 371.871 174.2C370.485 173.347 369.791 172.12 369.791 170.52V149.88C369.471 147.587 368.618 146.147 367.231 145.56C366.698 145.347 365.898 145.24 364.831 145.24C362.805 145.24 361.471 145.773 360.831 146.84C360.298 147.8 359.978 148.813 359.871 149.88V158.76C359.871 160.36 359.178 161.587 357.791 162.44C356.405 163.293 354.965 163.293 353.471 162.44C352.085 161.693 351.391 160.467 351.391 158.76V149.88C351.071 147.587 350.218 146.147 348.831 145.56C348.298 145.347 347.498 145.24 346.431 145.24C344.511 145.24 343.231 145.773 342.591 146.84C341.951 147.96 341.578 148.973 341.471 149.88V170.52C341.578 172.12 340.885 173.347 339.391 174.2C338.005 175.053 336.565 175.053 335.071 174.2C333.685 173.347 332.991 172.12 332.991 170.52V149.88C333.418 143.267 336.405 139.107 341.951 137.4C343.338 136.973 344.831 136.76 346.431 136.76ZM388.426 121.56C389.599 121.347 390.666 121.667 391.626 122.52C392.586 123.48 393.066 124.6 393.066 125.88V126.52C393.066 128.12 392.372 129.347 390.986 130.2C389.492 131.053 388.052 131.053 386.666 130.2C385.279 129.347 384.586 128.12 384.586 126.52V125.88C384.586 125.347 384.692 124.867 384.906 124.44C385.439 122.733 386.612 121.773 388.426 121.56ZM388.746 136.92C390.026 136.92 391.039 137.347 391.786 138.2C392.639 139.053 393.066 140.067 393.066 141.24V170.68C393.066 172.28 392.372 173.507 390.986 174.36C389.492 175.213 388.052 175.213 386.666 174.36C385.279 173.507 384.586 172.28 384.586 170.68V141.24C384.586 140.6 384.746 140.013 385.066 139.48C385.706 137.773 386.932 136.92 388.746 136.92ZM443.305 137.08V137.24C445.972 137.24 448.425 138.04 450.665 139.64C455.572 142.947 458.025 148.387 458.025 155.96C458.025 157.347 457.972 158.627 457.865 159.8C457.012 165.56 454.612 169.773 450.665 172.44C448.532 173.827 445.918 174.68 442.825 175C440.585 175 438.292 174.467 435.945 173.4V185.56C435.945 187.16 435.305 188.387 434.025 189.24C432.532 190.093 431.038 190.093 429.545 189.24C428.265 188.387 427.625 187.16 427.625 185.56V154.52C427.625 152.6 427.838 150.787 428.265 149.08C429.332 144.067 431.678 140.6 435.305 138.68C437.652 137.4 440.158 136.867 442.825 137.08H443.305ZM435.945 159.64C435.945 160.92 436.105 161.987 436.425 162.84C437.172 164.76 439.305 165.987 442.825 166.52C443.892 166.52 444.958 166.147 446.025 165.4C448.372 163.693 449.545 160.547 449.545 155.96C449.545 150.733 447.892 147.373 444.585 145.88L442.825 145.56C442.718 145.56 442.558 145.56 442.345 145.56C441.278 145.453 440.265 145.667 439.305 146.2C437.065 147.267 435.945 150.04 435.945 154.52V159.64ZM473.687 127V170.84C473.687 171.373 473.58 171.907 473.367 172.44C472.62 174.04 471.34 174.84 469.527 174.84C468.887 174.84 468.3 174.733 467.767 174.52C466.167 173.773 465.367 172.547 465.367 170.84V127C465.367 126.253 465.474 125.613 465.687 125.08C466.54 123.48 467.82 122.68 469.527 122.68C470.167 122.68 470.7 122.787 471.127 123C472.834 123.747 473.687 125.08 473.687 127ZM509.859 170.2C509.859 172.333 509.486 173.88 508.739 174.84C507.886 175.8 506.819 176.227 505.539 176.12C503.619 176.013 502.339 175.107 501.699 173.4C498.392 175.107 494.766 175.32 490.819 174.04C489.859 173.613 488.952 173.133 488.099 172.6C484.579 170.36 482.339 167 481.379 162.52C479.886 155.48 480.792 149.507 484.099 144.6C487.086 140.547 490.979 138.52 495.779 138.52C497.806 138.52 499.832 139.053 501.859 140.12C502.819 140.653 503.726 141.293 504.579 142.04C507.779 144.92 509.539 148.867 509.859 153.88V170.2ZM495.459 147.16C494.926 147.16 494.339 147.267 493.699 147.48C491.566 148.12 490.286 149.507 489.859 151.64C489.006 154.84 489.006 158.093 489.859 161.4C489.859 161.827 489.966 162.253 490.179 162.68C491.032 164.707 492.526 165.88 494.659 166.2C495.939 166.307 496.952 166.253 497.699 166.04C499.832 165.187 501.059 163 501.379 159.48C501.486 154.573 501.166 151.427 500.419 150.04C499.246 148.12 497.592 147.16 495.459 147.16ZM532.755 136.92C536.061 136.92 539.048 137.773 541.715 139.48C543.101 140.44 543.795 141.72 543.795 143.32C543.581 145.027 542.728 146.253 541.235 147C539.741 147.64 538.355 147.48 537.075 146.52C535.901 145.88 534.461 145.56 532.755 145.56C531.368 145.56 530.035 145.933 528.755 146.68C526.408 148.28 525.235 151.32 525.235 155.8V155.96C525.235 160.76 526.355 163.907 528.595 165.4C529.768 166.147 531.155 166.52 532.755 166.52C534.461 166.52 535.901 166.147 537.075 165.4C538.355 164.333 539.741 164.173 541.235 164.92C542.728 165.667 543.581 166.893 543.795 168.6C543.795 170.307 543.101 171.533 541.715 172.28C539.048 174.093 536.061 175 532.755 175C529.448 175 526.568 174.147 524.115 172.44C519.208 169.347 516.755 163.8 516.755 155.8C516.755 148.973 518.835 143.853 522.995 140.44C525.661 138.093 528.915 136.92 532.755 136.92ZM586.5 127V170.84C586.5 171.373 586.393 171.907 586.18 172.44C585.433 174.04 584.153 174.84 582.34 174.84C581.7 174.84 581.113 174.733 580.58 174.52C578.98 173.773 578.18 172.547 578.18 170.84V127C578.18 126.253 578.286 125.613 578.5 125.08C579.353 123.48 580.633 122.68 582.34 122.68C582.98 122.68 583.513 122.787 583.94 123C585.646 123.747 586.5 125.08 586.5 127ZM622.671 170.2C622.671 172.333 622.298 173.88 621.551 174.84C620.698 175.8 619.631 176.227 618.351 176.12C616.431 176.013 615.151 175.107 614.511 173.4C611.205 175.107 607.578 175.32 603.631 174.04C602.671 173.613 601.765 173.133 600.911 172.6C597.391 170.36 595.151 167 594.191 162.52C592.698 155.48 593.605 149.507 596.911 144.6C599.898 140.547 603.791 138.52 608.591 138.52C610.618 138.52 612.645 139.053 614.671 140.12C615.631 140.653 616.538 141.293 617.391 142.04C620.591 144.92 622.351 148.867 622.671 153.88V170.2ZM608.271 147.16C607.738 147.16 607.151 147.267 606.511 147.48C604.378 148.12 603.098 149.507 602.671 151.64C601.818 154.84 601.818 158.093 602.671 161.4C602.671 161.827 602.778 162.253 602.991 162.68C603.845 164.707 605.338 165.88 607.471 166.2C608.751 166.307 609.765 166.253 610.511 166.04C612.645 165.187 613.871 163 614.191 159.48C614.298 154.573 613.978 151.427 613.231 150.04C612.058 148.12 610.405 147.16 608.271 147.16ZM677.238 127.4C684.572 127.4 690.105 130.667 693.838 137.2C694.905 139.2 694.905 141.133 693.838 143C692.638 144.733 690.972 145.533 688.838 145.4C686.705 145.133 685.238 144 684.438 142C683.505 140.133 682.305 139 680.838 138.6C679.772 138.333 678.572 138.2 677.238 138.2C673.772 138.2 671.438 139.133 670.238 141C670.105 141.267 669.905 141.6 669.638 142C668.972 143.467 668.572 145 668.438 146.6V169.6C668.438 171.6 667.638 173.133 666.038 174.2C664.172 175.267 662.372 175.267 660.638 174.2C658.905 173.133 658.038 171.6 658.038 169.6V146.6C658.705 137.4 662.772 131.467 670.238 128.8C672.372 127.867 674.705 127.4 677.238 127.4ZM723.458 164C728.124 164 731.058 163.6 732.258 162.8C733.858 161.467 735.658 161.133 737.658 161.8C739.391 162.6 740.391 164.067 740.658 166.2C741.058 168.2 740.391 169.8 738.658 171C736.791 172.6 734.458 173.733 731.658 174.4C729.658 174.8 726.324 174.933 721.658 174.8C718.324 174.8 715.058 173.667 711.858 171.4C705.991 167.133 702.858 160.667 702.458 152C702.324 151.333 702.324 150.6 702.458 149.8C702.858 140.733 705.991 134.267 711.858 130.4C715.058 128.133 718.724 127 722.858 127C725.924 127 728.658 127.667 731.058 129C737.458 133 740.658 139.667 740.658 149V151C740.658 151.667 740.524 152.333 740.258 153C739.458 155.133 737.858 156.2 735.458 156.2H713.658C714.591 160.733 717.258 163.333 721.658 164H723.458ZM722.658 137.8H722.258H721.658C720.458 137.8 719.124 138.2 717.658 139C715.524 140.467 714.191 142.667 713.658 145.6H730.058V145.2C729.524 141.867 728.191 139.667 726.058 138.6C725.124 138.067 723.991 137.8 722.658 137.8ZM769.23 175C766.164 175.267 763.097 174.6 760.03 173C753.497 169.267 750.23 162.667 750.23 153.2V114.6C750.23 113.667 750.43 112.867 750.83 112.2C751.63 110.067 753.164 109 755.43 109C756.897 109 758.164 109.6 759.23 110.8C760.297 111.733 760.83 113 760.83 114.6V129.6C763.23 128.667 766.03 128 769.23 127.6C773.497 127.6 777.364 129.133 780.83 132.2C785.897 136.467 788.43 142.8 788.43 151.2C788.43 152.933 788.297 154.533 788.03 156C786.964 163.333 784.03 168.6 779.23 171.8C776.297 173.8 773.23 174.867 770.03 175H769.23ZM760.83 153.2C760.83 154.533 760.897 155.8 761.03 157C761.697 162.067 764.23 164.6 768.63 164.6H769.23C770.564 164.467 771.897 163.933 773.23 163C776.297 160.867 777.83 156.933 777.83 151.2C777.83 145.467 776.297 141.6 773.23 139.6C772.164 138.933 770.83 138.467 769.23 138.2C767.764 138.2 766.297 138.6 764.83 139.4C764.297 139.667 763.897 139.867 763.63 140C761.764 141.2 760.83 143.4 760.83 146.6V153.2ZM817.598 164C822.265 164 825.198 163.6 826.398 162.8C827.998 161.467 829.798 161.133 831.798 161.8C833.532 162.6 834.532 164.067 834.798 166.2C835.198 168.2 834.532 169.8 832.798 171C830.932 172.6 828.598 173.733 825.798 174.4C823.798 174.8 820.465 174.933 815.798 174.8C812.465 174.8 809.198 173.667 805.998 171.4C800.132 167.133 796.998 160.667 796.598 152C796.465 151.333 796.465 150.6 796.598 149.8C796.998 140.733 800.132 134.267 805.998 130.4C809.198 128.133 812.865 127 816.998 127C820.065 127 822.798 127.667 825.198 129C831.598 133 834.798 139.667 834.798 149V151C834.798 151.667 834.665 152.333 834.398 153C833.598 155.133 831.998 156.2 829.598 156.2H807.798C808.732 160.733 811.398 163.333 815.798 164H817.598ZM816.798 137.8H816.398H815.798C814.598 137.8 813.265 138.2 811.798 139C809.665 140.467 808.332 142.667 807.798 145.6H824.198V145.2C823.665 141.867 822.332 139.667 820.198 138.6C819.265 138.067 818.132 137.8 816.798 137.8Z" fill="white"/>
</svg>
